HIERARCHY
ROOT Hips
{
	OFFSET	0.00	0.00	0.00
	CHANNELS 6 Xposition Yposition Zposition Zrotation Xrotation Yrotation
	JOINT LeftUpLeg
	{
		OFFSET	 0.126116	-0.065224	 0.014019
		CHANNELS 3 Zrotation Xrotation Yrotation
		JOINT LeftLeg
		{
			OFFSET	 0.000000	 0.569914	 0.000000
			CHANNELS 3 Zrotation Xrotation Yrotation
			JOINT LeftFoot
			{
				OFFSET	 0.000000	 0.544423	 0.000000
				CHANNELS 3 Zrotation Xrotation Yrotation
				JOINT LeftToeBase
				{
					OFFSET	 0.000000	 0.207117	 0.000000
					CHANNELS 3 Zrotation Xrotation Yrotation
					End Site
					{
						OFFSET	 0.000000	 0.207117	 0.000000
					}
				}
			}
		}
	}
	JOINT RightUpLeg
	{
		OFFSET	-0.124023	-0.065224	 0.008373
		CHANNELS 3 Zrotation Xrotation Yrotation
		JOINT RightLeg
		{
			OFFSET	 0.000000	 0.570047	 0.000000
			CHANNELS 3 Zrotation Xrotation Yrotation
			JOINT RightFoot
			{
				OFFSET	 0.000000	 0.544354	 0.000000
				CHANNELS 3 Zrotation Xrotation Yrotation
				JOINT RightToeBase
				{
					OFFSET	 0.000000	 0.207540	 0.000000
					CHANNELS 3 Zrotation Xrotation Yrotation
					End Site
					{
						OFFSET	 0.000000	 0.207540	 0.000000
					}
				}
			}
		}
	}
	JOINT Spine
	{
		OFFSET	 0.000184	 0.117403	 0.007763
		CHANNELS 3 Zrotation Xrotation Yrotation
		JOINT Spine1
		{
			OFFSET	 0.000000	 0.137269	 0.000000
			CHANNELS 3 Zrotation Xrotation Yrotation
			JOINT Spine2
			{
				OFFSET	 0.000000	 0.156879	 0.000000
				CHANNELS 3 Zrotation Xrotation Yrotation
				JOINT LeftShoulder
				{
					OFFSET	 0.080501	 0.160143	 0.002496
					CHANNELS 3 Zrotation Xrotation Yrotation
					JOINT LeftArm
					{
						OFFSET	 0.000000	 0.164363	 0.000000
						CHANNELS 3 Zrotation Xrotation Yrotation
						JOINT LeftForeArm
						{
							OFFSET	 0.000000	 0.364576	 0.000000
							CHANNELS 3 Zrotation Xrotation Yrotation
							JOINT LeftHand
							{
								OFFSET	 0.000000	 0.360812	 0.000000
								CHANNELS 3 Zrotation Xrotation Yrotation
								JOINT LeftHandIndex1
								{
									OFFSET	 0.000000	 0.086006	 0.000000
									CHANNELS 3 Zrotation Xrotation Yrotation
									JOINT LeftHandIndex2
									{
										OFFSET	 0.000000	 0.047237	 0.000000
										CHANNELS 3 Zrotation Xrotation Yrotation
										JOINT LeftHandIndex3
										{
											OFFSET	-0.004284	 0.038165	 0.000551
											CHANNELS 3 Zrotation Xrotation Yrotation
											End Site
											{
												OFFSET	-0.004284	 0.038165	 0.000551
											}
										}
									}
								}
							}
						}
					}
				}
				JOINT Neck
				{
					OFFSET	 0.000000	 0.176489	 0.000000
					CHANNELS 3 Zrotation Xrotation Yrotation
					JOINT Head
					{
						OFFSET	 0.000000	 0.077941	 0.001747
						CHANNELS 3 Zrotation Xrotation Yrotation
						End Site
						{
							OFFSET	 0.000000	 0.077941	 0.001747
						}
					}
				}
				JOINT RightShoulder
				{
					OFFSET	-0.080363	 0.159706	-0.000306
					CHANNELS 3 Zrotation Xrotation Yrotation
					JOINT RightArm
					{
						OFFSET	 0.000000	 0.164196	 0.000000
						CHANNELS 3 Zrotation Xrotation Yrotation
						JOINT RightForeArm
						{
							OFFSET	 0.000000	 0.365611	 0.000000
							CHANNELS 3 Zrotation Xrotation Yrotation
							JOINT RightHand
							{
								OFFSET	 0.000000	 0.360648	 0.000000
								CHANNELS 3 Zrotation Xrotation Yrotation
								JOINT RightHandIndex1
								{
									OFFSET	 0.000000	 0.069977	 0.000000
									CHANNELS 3 Zrotation Xrotation Yrotation
									JOINT RightHandIndex2
									{
										OFFSET	 0.000000	 0.052305	 0.000000
										CHANNELS 3 Zrotation Xrotation Yrotation
										JOINT RightHandIndex3
										{
											OFFSET	 0.009002	 0.042196	 0.000782
											CHANNELS 3 Zrotation Xrotation Yrotation
											End Site
											{
												OFFSET	 0.009002	 0.042196	 0.000782
											}
										}
									}
								}
							}
						}
					}
				}
			}
		}
	}
}
MOTION
Frames:    12
Frame Time: 0.03333334
 0.472869	 0.961630	 0.634021	-9.940772	-40.476250	 179.163000	 43.554460	 81.241100	 119.664700	 52.332070	-71.447670	 57.577290	 72.538050	 73.043500	-69.621510	 1.292262	 28.425850	-2.713146	 7.335081	 79.251530	 166.887200	-52.687750	-76.414100	-59.372270	-65.773020	 66.960760	 62.257940	-1.288183	 28.361890	 2.710176	-0.396600	 11.519000	 0.387514	-0.709806	 10.202510	-1.053336	-2.824475	 7.783933	-4.604033	-123.988300	 33.918900	 108.579000	 53.139950	 6.726800	 14.445100	 4.789485	-0.389281	-42.857850	 29.966430	-8.337564	 25.795000	-6.580301	 5.266122	 0.000000	 0.000000	 0.000000	 0.000000	 0.000000	 0.000000	 0.000000	 11.648900	 39.934880	-4.929907	-7.650619	-50.278470	-2.058358	 124.255300	 31.961360	-108.075100	-64.494630	 2.231992	 6.214846	-5.059891	 0.120569	-5.463674	-14.437900	-29.960530	-16.054880	 15.208500	 5.323790	 0.000000	 0.000000	 0.000000	 0.000000	 0.000000	 0.000000	 0.000000
 0.467889	 0.984847	 0.635383	-9.996038	-38.902790	 179.167300	 67.891980	 83.076550	 94.792270	 43.880460	-69.030200	 48.429860	 68.109730	 73.463100	-64.584750	 1.292262	 28.425850	-2.713146	 18.640860	 82.395010	 155.499300	-42.300960	-74.061370	-48.806340	-62.043660	 67.023010	 58.512740	-1.288183	 28.361890	 2.710176	-0.341881	 10.984860	 0.520938	-0.524070	 11.040680	-1.077771	-2.833745	 6.520345	-4.815111	-124.192000	 32.807490	 108.147200	 54.626060	 6.755375	 15.082690	 4.825542	-0.392143	-42.682410	 34.236180	-8.519068	 23.342300	-6.580301	 5.266122	 0.000000	 0.000000	 0.000000	 0.000000	 0.000000	 0.000000	 0.000000	 10.139940	 35.641540	-4.338542	-6.302904	-46.093540	-1.619226	 124.661000	 30.990930	-107.696500	-65.611570	 2.891805	 7.402173	-5.069853	 0.120811	-6.713904	-17.089100	-33.942740	-16.797710	 15.208500	 5.323790	 0.000000	 0.000000	 0.000000	 0.000000	 0.000000	 0.000000	 0.000000
 0.446785	 1.252771	 0.514252	 0.051458	-12.169460	-174.446400	 178.256700	 28.096280	-8.240891	 6.388881	-22.727260	 11.909160	 19.055430	 67.399810	-15.070540	 1.292262	 28.425850	-2.713146	 173.644000	 29.435840	 17.290560	-4.686924	-23.031340	-4.196694	-12.219690	 66.189280	 6.205006	-1.288183	 28.361890	 2.710176	 0.522024	 1.566145	 1.636043	 0.084616	 5.173499	 0.411481	 0.646628	-8.027731	-5.107991	-119.667700	 9.788960	 95.032040	 52.145940	 45.743470	 14.579110	 4.944448	-0.401828	-22.456770	 58.116880	-7.302643	 17.884660	-6.580301	 5.266122	 0.000000	 0.000000	 0.000000	 0.000000	 0.000000	 0.000000	 0.000000	-0.051049	 3.755063	-1.834283	-0.091758	-9.841375	-1.631570	 124.667300	 9.731093	-96.220540	-31.726120	 26.290610	-7.103094	-73.150240	 1.308094	-13.157060	-2.531273	-23.848520	-13.426600	 15.208500	 5.323790	 0.000000	 0.000000	 0.000000	 0.000000	 0.000000	 0.000000	 0.000000
 0.448373	 1.262414	 0.496157	 0.305700	-9.668677	-174.078300	 178.979500	 22.115470	-8.203782	 5.320853	-19.242480	 9.709569	 13.801260	 67.479120	-9.872910	 1.292262	 28.425850	-2.713146	 174.668100	 23.512410	 17.069730	-3.735581	-18.725020	-1.877341	-6.772030	 65.517400	 0.589124	-1.288183	 28.361890	 2.710176	 0.401806	 1.504219	 1.828950	-0.403022	 2.676418	 0.476296	 0.730579	-6.906420	-5.034856	-119.947100	 7.906851	 94.155150	 49.223660	 46.357160	 18.024230	 4.928498	-0.400525	-20.311710	 58.960000	-7.121325	 16.290630	-6.580301	 5.266122	 0.000000	 0.000000	 0.000000	 0.000000	 0.000000	 0.000000	 0.000000	 0.216709	 5.955241	-1.875674	 0.102870	-9.079876	-1.642491	 124.411900	 8.204370	-95.375420	-29.365460	 24.359000	-5.662760	-77.432260	 1.334012	-14.139410	 0.534484	-18.600970	-8.210828	 15.208500	 5.323790	 0.000000	 0.000000	 0.000000	 0.000000	 0.000000	 0.000000	 0.000000
 0.449337	 1.268490	 0.483642	 0.517746	-7.656829	-173.823600	 179.600100	 17.940080	-8.238652	 4.440838	-16.249430	 7.780978	 9.134326	 67.233020	-5.151911	 1.292262	 28.425850	-2.713146	 175.528600	 18.821270	 17.172340	-2.991151	-15.188980	-0.229758	-3.075472	 64.736650	-3.235400	-1.288183	 28.361890	 2.710176	 0.349858	 1.411251	 1.934915	-0.527787	 2.042770	 0.551860	 0.725998	-6.479376	-4.930868	-120.388300	 6.185378	 93.358830	 47.195790	 46.354170	 19.765130	 4.904567	-0.398621	-18.491590	 59.392170	-6.767226	 14.812680	-6.580301	 5.266122	 0.000000	 0.000000	 0.000000	 0.000000	 0.000000	 0.000000	 0.000000	 0.287260	 7.718647	-1.797167	 0.299863	-8.290061	-1.667285	 124.041600	 6.948697	-94.669420	-27.889100	 22.865180	-3.907244	-79.846280	 1.345273	-14.801030	 1.824240	-14.226020	-4.317428	 15.208500	 5.323790	 0.000000	 0.000000	 0.000000	 0.000000	 0.000000	 0.000000	 0.000000
 0.448989	 1.271619	 0.474754	 0.508556	-6.153030	-173.989800	 179.985700	 14.902790	-8.575075	 3.914509	-14.411810	 6.830542	 6.753182	 67.001900	-2.842082	 1.292262	 28.425850	-2.713146	 175.908400	 15.587200	 17.002060	-2.529196	-12.930300	 0.152088	-2.121484	 64.111560	-4.080425	-1.288183	 28.361890	 2.710176	 0.301757	 1.375183	 1.982550	-0.730400	 0.969298	 0.578506	 0.791925	-6.085249	-4.784370	-120.839400	 5.113592	 92.866660	 44.413050	 44.869340	 20.642310	 4.953427	-0.402639	-17.810390	 60.210330	-5.374766	 12.403770	-6.580301	 5.266122	 0.000000	 0.000000	 0.000000	 0.000000	 0.000000	 0.000000	 0.000000	 0.318533	 7.858004	-1.699504	 0.335047	-7.471127	-1.660486	 123.832500	 6.255579	-94.283940	-24.148560	 21.553770	-4.382568	-78.956840	 1.341432	-15.079600	-1.930971	-12.947020	-1.517503	 15.208500	 5.323790	 0.000000	 0.000000	 0.000000	 0.000000	 0.000000	 0.000000	 0.000000
 0.448714	 1.275534	 0.464469	 0.446674	-4.273590	-174.343000	-179.622900	 11.588150	-9.106075	 3.519475	-13.011420	 5.968715	 4.428256	 66.961730	-0.721014	 1.292262	 28.425850	-2.713146	 176.188800	 12.267140	 16.580230	-2.239334	-11.491090	 0.065468	-1.934200	 63.891540	-3.903781	-1.288183	 28.361890	 2.710176	 0.243081	 1.294469	 2.082905	-1.010680	-0.335272	 0.670749	 0.877843	-5.753136	-4.582503	-121.423900	 3.951608	 92.326650	 40.774190	 42.766850	 22.123380	 5.011292	-0.402558	-17.331990	 61.252490	-3.469984	 9.214888	-6.580301	 5.266122	 0.000000	 0.000000	 0.000000	 0.000000	 0.000000	 0.000000	 0.000000	 0.371772	 7.390502	-1.575358	 0.311664	-6.341454	-1.636677	 123.642200	 5.541860	-93.892920	-19.726650	 19.743280	-5.026556	-76.105740	 1.326762	-15.330070	-8.205626	-12.252900	 1.705009	 15.208500	 5.323790	 0.000000	 0.000000	 0.000000	 0.000000	 0.000000	 0.000000	 0.000000
 0.446911	 1.277640	 0.457521	 0.429189	-3.038298	-174.575500	-179.441300	 9.428249	-9.428918	 3.251518	-12.051940	 5.371121	 2.931170	 66.859340	 0.735615	 1.292262	 28.425850	-2.713146	 176.322800	 9.846796	 16.304380	-1.943389	-10.006030	-0.030044	-1.892215	 63.421640	-3.686320	-1.288183	 28.361890	 2.710176	 0.218427	 1.224761	 2.096084	-1.111739	-1.098176	 0.686353	 0.893851	-5.580166	-4.451500	-121.818100	 3.182386	 91.961560	 38.940520	 40.887600	 22.669120	 5.074763	-0.411254	-17.090060	 61.653380	-2.062307	 6.725036	-6.580301	 5.266122	 0.000000	 0.000000	 0.000000	 0.000000	 0.000000	 0.000000	 0.000000	 0.407694	 7.079823	-1.492668	 0.294624	-5.590535	-1.620831	 123.518600	 5.066749	-93.634570	-17.320500	 19.000230	-5.824980	-72.045310	 1.300229	-15.545310	-14.084320	-12.829550	 3.205041	 15.208500	 5.323790	 0.000000	 0.000000	 0.000000	 0.000000	 0.000000	 0.000000	 0.000000
 0.445199	 1.277897	 0.454599	 0.405305	-2.483778	-174.803300	-179.414700	 8.517304	-9.664143	 3.152272	-11.694730	 5.080157	 2.260906	 66.861920	 1.433738	 1.292262	 28.425850	-2.713146	 176.337900	 8.870975	 16.054710	-1.833525	-9.450951	-0.056194	-1.788548	 63.272790	-3.634640	-1.288183	 28.361890	 2.710176	 0.206828	 1.159014	 2.101284	-1.111384	-1.114359	 0.719686	 0.866643	-5.731936	-4.346696	-121.881300	 2.971655	 91.858480	 36.374330	 39.541430	 23.995640	 8.396059	-0.680767	-16.979740	 60.145380	-1.738326	 5.977839	-6.580301	 5.266122	 0.000000	 0.000000	 0.000000	 0.000000	 0.000000	 0.000000	 0.000000	 0.448760	 6.682259	-1.422100	 0.181131	-5.192306	-1.596843	 123.426100	 4.930755	-93.555790	-16.510060	 18.983010	-6.562339	-69.452320	 1.279871	-15.597300	-17.328410	-13.685240	 3.269191	 15.208500	 5.323790	 0.000000	 0.000000	 0.000000	 0.000000	 0.000000	 0.000000	 0.000000
 0.443736	 1.277595	 0.453226	 0.366810	-2.235964	-175.020900	-179.454500	 8.143031	-9.856400	 3.126390	-11.601390	 4.945915	 1.990399	 66.933430	 1.748229	 1.292262	 28.425850	-2.713146	 176.291900	 8.551255	 15.824980	-1.820092	-9.383171	-0.032074	-1.612654	 63.332890	-3.700131	-1.288183	 28.361890	 2.710176	 0.192877	 1.126961	 2.115824	-1.128338	-1.156767	 0.759628	 0.853220	-5.855789	-4.254396	-121.786700	 3.027503	 91.882420	 32.007540	 37.937270	 26.527450	 15.296540	-1.229838	-16.864540	 56.818770	-1.904312	 6.101346	-6.580301	 5.266122	 0.000000	 0.000000	 0.000000	 0.000000	 0.000000	 0.000000	 0.000000	 0.491149	 6.256887	-1.359266	 0.026255	-4.971283	-1.569250	 123.350400	 4.957499	-93.562910	-16.050300	 19.092460	-7.271426	-67.634450	 1.263958	-15.571400	-19.488750	-14.487010	 2.937013	 15.208500	 5.323790	 0.000000	 0.000000	 0.000000	 0.000000	 0.000000	 0.000000	 0.000000
 0.441946	 1.277050	 0.451977	 0.335346	-2.011554	-175.222600	-179.511700	 7.835468	-10.033970	 3.112486	-11.551260	 4.822724	 1.759109	 67.004690	 2.038498	 1.292262	 28.425850	-2.713146	 176.231300	 8.293457	 15.612830	-1.815436	-9.359468	-0.012208	-1.431899	 63.390750	-3.760186	-1.288183	 28.361890	 2.710176	 0.182889	 1.091315	 2.110839	-1.120698	-1.120494	 0.780772	 0.829406	-6.005617	-4.169561	-121.698900	 3.079337	 91.904570	 28.769130	 36.457630	 28.267200	 20.764830	-1.652518	-16.726930	 54.123070	-2.045727	 6.052812	-6.580301	 5.266122	 0.000000	 0.000000	 0.000000	 0.000000	 0.000000	 0.000000	 0.000000	 0.530866	 5.862273	-1.300730	-0.117845	-4.766251	-1.542918	 123.280200	 4.982342	-93.569480	-15.751840	 19.354000	-8.021321	-65.488470	 1.243551	-15.556640	-21.859100	-15.433630	 2.408543	 15.208500	 5.323790	 0.000000	 0.000000	 0.000000	 0.000000	 0.000000	 0.000000	 0.000000
 0.431898	 1.273086	 0.446433	 0.206560	-0.905046	-176.281300	-179.922600	 7.456788	-10.926380	 3.621837	-13.404770	 4.260514	 0.370217	 68.383470	 3.575159	 1.292262	 28.425850	-2.713146	 175.846300	 7.883317	 14.500150	-2.094810	-10.767680	 0.026192	-0.359414	 64.370000	-4.036057	-1.288183	 28.361890	 2.710176	 0.149565	 0.826963	 2.035355	-0.927120	 0.004238	 0.868094	 0.628256	-7.226790	-3.735380	-121.238800	 3.351746	 92.019340	 19.583430	 30.677310	 32.077050	 38.424880	-2.895209	-16.020600	 45.145960	-2.644525	 4.913848	-6.580301	 5.266122	 0.000000	 0.000000	 0.000000	 0.000000	 0.000000	 0.000000	 0.000000	 0.745400	 3.793584	-0.989805	-0.880160	-3.691054	-1.393400	 122.911900	 5.112690	-93.603450	-16.419940	 21.818740	-11.248450	-51.952080	 1.039021	-15.475310	-35.045280	-20.407980	-1.849144	 15.208500	 5.323790	 0.000000	 0.000000	 0.000000	 0.000000	 0.000000	 0.000000	 0.000000
